<?xml version="1.0" encoding="UTF-8" standalone="no"?>
<svg
   xmlns:dc="http://purl.org/dc/elements/1.1/"
   xmlns:cc="http://creativecommons.org/ns#"
   xmlns:rdf="http://www.w3.org/1999/02/22-rdf-syntax-ns#"
   xmlns:svg="http://www.w3.org/2000/svg"
   xmlns="http://www.w3.org/2000/svg"
   xmlns:sodipodi="http://sodipodi.sourceforge.net/DTD/sodipodi-0.dtd"
   xmlns:inkscape="http://www.inkscape.org/namespaces/inkscape"
   width="24px"
   height="24px"
   viewBox="0 0 24 24"
   version="1.1"
   id="svg8"
   sodipodi:docname="c.svg"
   inkscape:version="1.0.2 (e86c870879, 2021-01-15)">
  <metadata
     id="metadata14">
    <rdf:RDF>
      <cc:Work
         rdf:about="">
        <dc:format>image/svg+xml</dc:format>
        <dc:type
           rdf:resource="http://purl.org/dc/dcmitype/StillImage" />
        <dc:title></dc:title>
      </cc:Work>
    </rdf:RDF>
  </metadata>
  <defs
     id="defs12" />
  <sodipodi:namedview
     pagecolor="#ffffff"
     bordercolor="#666666"
     borderopacity="1"
     objecttolerance="10"
     gridtolerance="10"
     guidetolerance="10"
     inkscape:pageopacity="0"
     inkscape:pageshadow="2"
     inkscape:window-width="1366"
     inkscape:window-height="723"
     id="namedview10"
     showgrid="false"
     inkscape:zoom="34.710797"
     inkscape:cx="12.481353"
     inkscape:cy="13.940272"
     inkscape:window-x="-5"
     inkscape:window-y="-5"
     inkscape:window-maximized="1"
     inkscape:current-layer="svg8" />
  <path
     d="M6.078 12A5.928 5.928 0 0 1 12 6.078a5.946 5.946 0 0 1 5.129 2.959l-1.499.867 5.027-2.902a1.579 1.579 0 0 0-.543-.575l-7.345-4.24c-.424-.245-1.116-.245-1.539 0l-7.345 4.24c-.422.244-.768.844-.768 1.333v8.48c0 .245.086.517.226.758l3.529-2.038A5.883 5.883 0 0 1 6.078 12z"
     id="path2" />
  <path
     d="M14.564 10.519A2.971 2.971 0 0 0 12 9.039a2.964 2.964 0 0 0-2.564 4.441L12 12l2.564-1.481z"
     id="path4" />
  <path
     d="M 20.657,7.002 15.611,9.915 14.565,10.52 14.564,10.519 12,12 9.437,13.48 c 0.5290243,0.915475 1.505664,1.479815 2.563,1.481 1.05772,-0.0017 2.034716,-0.56581 2.565,-1.481 l 2.563,1.483 c -1.061745,1.828318 -3.014755,2.95504 -5.129,2.959 -2.1154967,-0.0012 -4.0698948,-1.130132 -5.128,-2.962 l -3.529,2.038 c 0.14,0.242 0.332,0.453 0.543,0.575 l 7.345,4.24 c 0.423,0.245 1.115,0.245 1.539,0 l 7.345,-4.24 c 0.211,-0.122 0.403,-0.333 0.543,-0.575 0.14,-0.241 0.226,-0.513 0.226,-0.758 V 7.76 c 0,-0.245 -0.086,-0.517 -0.226,-0.758 z"
     id="path6"
     sodipodi:nodetypes="cccccccccccccccccssc" />
</svg>
